<?xml version="1.0" standalone="no"?>
<!DOCTYPE svg PUBLIC "-//W3C//DTD SVG 20010904//EN"
 "http://www.w3.org/TR/2001/REC-SVG-20010904/DTD/svg10.dtd">
<svg version="1.0" xmlns="http://www.w3.org/2000/svg"
 width="2212.000000pt" height="540.000000pt" viewBox="0 0 2212.000000 540.000000"
 preserveAspectRatio="xMidYMid meet">
<metadata>
Created by potrace 1.15, written by Peter Selinger 2001-2017
</metadata>
<g transform="translate(0.000000,540.000000) scale(0.100000,-0.100000)"
fill="#000000" stroke="none">
<path d="M16055 5386 c-68 -22 -118 -52 -167 -103 -60 -62 -95 -132 -108 -219
-7 -48 -10 -786 -8 -2389 l3 -2320 23 -58 c44 -108 135 -199 237 -234 47 -17
187 -18 2425 -18 l2375 0 57 23 c67 27 155 103 192 167 60 101 56 -55 54 2511
l-3 2349 -22 55 c-45 111 -129 193 -238 231 -53 19 -107 19 -2417 18 -1880 0
-2371 -3 -2403 -13z m1065 -757 c200 -70 331 -283 300 -489 -23 -148 -121
-280 -259 -348 -73 -36 -77 -37 -190 -37 -110 0 -120 2 -184 32 -95 45 -178
127 -225 222 -36 73 -37 77 -37 190 0 112 1 118 36 191 103 216 337 316 559
239z m2473 -1194 c437 -66 648 -305 723 -819 14 -93 17 -243 21 -943 l5 -833
-396 0 -396 0 0 724 c0 464 -4 753 -11 803 -28 205 -115 333 -253 376 -24 7
-94 12 -166 11 -106 0 -134 -4 -183 -23 -146 -57 -228 -173 -269 -381 -6 -35
-12 -319 -15 -783 l-4 -727 -390 0 -389 0 0 1275 0 1275 375 0 375 0 0 -175
c0 -196 5 -207 55 -127 101 160 314 301 520 345 91 20 275 21 398 2z m-2233
-1320 l0 -1275 -390 0 -390 0 0 1275 0 1275 390 0 390 0 0 -1275z"/>
<path d="M3031 4659 c-72 -14 -168 -65 -226 -120 -239 -226 -176 -615 122
-757 77 -36 80 -37 198 -37 118 0 121 1 198 37 128 61 216 168 252 303 86 331
-208 640 -544 574z"/>
<path d="M0 2720 l0 -1890 1185 0 1185 0 0 385 0 385 -765 0 -765 0 0 1505 0
1505 -420 0 -420 0 0 -1890z"/>
<path d="M6830 2720 l0 -1890 405 0 405 0 2 626 3 627 418 -627 417 -626 506
0 c401 0 504 3 498 13 -4 6 -232 314 -506 684 -274 370 -498 677 -498 683 0 6
232 274 515 595 283 322 515 587 515 590 0 3 -222 5 -492 5 l-493 -1 -440
-510 -440 -510 -3 1116 -2 1115 -405 0 -405 0 0 -1890z"/>
<path d="M14190 3878 l0 -733 -88 85 c-70 69 -106 95 -182 133 -167 83 -399
125 -616 113 -476 -26 -854 -333 -1028 -834 -65 -188 -81 -296 -80 -547 0
-244 14 -339 75 -512 137 -389 435 -667 823 -767 199 -52 424 -58 596 -16 191
47 401 176 516 318 l44 54 0 -171 0 -171 370 0 370 0 0 1890 0 1890 -400 0
-400 0 0 -732z m-423 -1123 c222 -42 385 -191 455 -415 19 -63 23 -97 23 -215
0 -119 -4 -151 -24 -215 -46 -147 -109 -239 -216 -316 -98 -70 -211 -106 -350
-111 -347 -15 -593 175 -650 502 -19 110 -19 170 0 280 63 359 379 562 762
490z"/>
<path d="M10615 3470 c-586 -52 -1045 -389 -1215 -890 -63 -186 -87 -476 -56
-675 50 -330 202 -606 442 -804 265 -219 592 -331 969 -331 303 0 560 77 806
242 87 58 289 243 289 265 0 10 -545 413 -559 413 -4 0 -21 -18 -37 -41 -105
-152 -340 -269 -542 -269 -77 0 -198 32 -275 72 -132 69 -253 222 -291 366
l-14 52 919 0 919 0 0 203 c0 115 -6 247 -14 307 -62 459 -280 797 -631 973
-190 95 -460 140 -710 117z m171 -586 c59 -7 171 -64 229 -116 28 -25 66 -72
85 -104 34 -57 68 -163 69 -216 l1 -28 -520 0 -520 0 6 28 c36 165 108 276
230 357 122 81 231 102 420 79z"/>
<path d="M5275 3443 c-194 -41 -379 -162 -502 -327 l-43 -58 0 171 0 171 -385
0 -385 0 0 -1285 0 -1285 400 0 399 0 4 743 c4 819 3 806 68 949 41 88 123
166 206 198 88 34 239 39 331 11 129 -39 207 -138 248 -311 16 -67 18 -155 21
-832 l4 -758 400 0 400 0 -4 868 c-3 768 -5 879 -21 970 -81 482 -294 714
-716 777 -122 19 -334 18 -425 -2z"/>
<path d="M2720 2115 l0 -1285 405 0 405 0 0 1285 0 1285 -405 0 -405 0 0
-1285z"/>
<path d="M21682 740 c-120 -17 -238 -113 -283 -228 -31 -80 -30 -195 1 -277
32 -83 122 -173 205 -205 83 -32 197 -32 280 0 83 32 173 122 205 205 49 130
23 286 -66 384 -89 99 -205 140 -342 121z m203 -82 c203 -105 236 -367 66
-520 -61 -55 -122 -78 -206 -78 -95 0 -150 24 -221 94 -71 72 -94 126 -94 225
0 136 92 257 230 302 14 5 59 7 100 5 57 -2 87 -9 125 -28z"/>
<path d="M21610 370 l0 -200 35 0 35 0 0 85 0 85 28 0 c23 0 34 -12 80 -85 51
-81 55 -85 89 -85 42 0 41 4 -15 88 -21 31 -42 62 -46 69 -4 8 5 18 28 27 42
18 59 47 58 102 -1 90 -41 114 -192 114 l-100 0 0 -200z m212 123 c23 -20 23
-45 0 -73 -13 -16 -32 -23 -80 -27 l-62 -6 0 62 0 61 62 0 c43 0 67 -5 80 -17z"/>
</g>
</svg>
